<svg width="1200" height="360" viewBox="0 0 1200 360" fill="none" xmlns="http://www.w3.org/2000/svg">
  <defs>
    <linearGradient id="bg" x1="0" y1="0" x2="1200" y2="360" gradientUnits="userSpaceOnUse">
      <stop offset="0" stop-color="#0d1117"/>
      <stop offset="0.52" stop-color="#111827"/>
      <stop offset="1" stop-color="#061a2d"/>
    </linearGradient>
    <linearGradient id="arm" x1="390" y1="92" x2="860" y2="290" gradientUnits="userSpaceOnUse">
      <stop stop-color="#58a6ff"/>
      <stop offset="1" stop-color="#2ea043"/>
    </linearGradient>
    <filter id="glow" x="-20%" y="-20%" width="140%" height="140%">
      <feGaussianBlur stdDeviation="8" result="blur"/>
      <feColorMatrix in="blur" type="matrix" values="0 0 0 0 0.35 0 0 0 0 0.65 0 0 0 0 1 0 0 0 0.35 0"/>
      <feBlend in="SourceGraphic" mode="screen"/>
    </filter>
  </defs>

  <rect width="1200" height="360" rx="28" fill="url(#bg)"/>
  <path d="M0 258C155 208 225 246 362 214C507 180 586 74 750 100C891 122 974 233 1200 185V360H0V258Z" fill="#0b243a" opacity="0.72"/>
  <path d="M0 293C161 247 250 300 396 265C531 232 622 145 766 166C912 187 1015 280 1200 246V360H0V293Z" fill="#123d55" opacity="0.45"/>

  <g opacity="0.26">
    <path d="M80 72H1120" stroke="#30363d"/>
    <path d="M80 128H1120" stroke="#30363d"/>
    <path d="M80 184H1120" stroke="#30363d"/>
    <path d="M80 240H1120" stroke="#30363d"/>
    <path d="M80 296H1120" stroke="#30363d"/>
    <path d="M160 40V320" stroke="#30363d"/>
    <path d="M320 40V320" stroke="#30363d"/>
    <path d="M480 40V320" stroke="#30363d"/>
    <path d="M640 40V320" stroke="#30363d"/>
    <path d="M800 40V320" stroke="#30363d"/>
    <path d="M960 40V320" stroke="#30363d"/>
  </g>

  <g filter="url(#glow)">
    <circle cx="391" cy="234" r="28" fill="#1f6feb"/>
    <rect x="284" y="220" width="120" height="28" rx="14" fill="url(#arm)" transform="rotate(-8 284 220)"/>
    <rect x="390" y="202" width="154" height="30" rx="15" fill="url(#arm)" transform="rotate(-30 390 202)"/>
    <circle cx="535" cy="126" r="25" fill="#2ea043"/>
    <rect x="527" y="116" width="160" height="28" rx="14" fill="url(#arm)" transform="rotate(22 527 116)"/>
    <circle cx="688" cy="182" r="22" fill="#58a6ff"/>
    <rect x="682" y="170" width="118" height="24" rx="12" fill="url(#arm)" transform="rotate(-18 682 170)"/>
    <circle cx="798" cy="148" r="14" fill="#f0f6fc"/>
  </g>

  <g stroke="#f0f6fc" stroke-width="8" stroke-linecap="round" stroke-linejoin="round" opacity="0.92">
    <path d="M813 143L836 117"/>
    <path d="M821 151L853 144"/>
    <path d="M821 162L849 181"/>
    <path d="M808 169L812 204"/>
    <path d="M795 166L777 197"/>
  </g>

  <g opacity="0.92">
    <text x="84" y="124" fill="#f0f6fc" font-family="Inter, Segoe UI, Arial, sans-serif" font-size="42" font-weight="700">Robotics Teleoperation</text>
    <text x="86" y="174" fill="#8b949e" font-family="Inter, Segoe UI, Arial, sans-serif" font-size="23">CR3 arm + CRAFT hand + MuJoCo + human input</text>
    <text x="86" y="220" fill="#58a6ff" font-family="Consolas, Monaco, monospace" font-size="19">camera -> perception -> policy/control -> dexterous action</text>
  </g>

  <g transform="translate(910 72)">
    <rect width="206" height="110" rx="18" fill="#161b22" stroke="#30363d"/>
    <circle cx="42" cy="42" r="18" fill="#2ea043"/>
    <circle cx="102" cy="42" r="18" fill="#1f6feb"/>
    <circle cx="162" cy="42" r="18" fill="#8957e5"/>
    <path d="M42 72C76 94 126 94 162 72" stroke="#8b949e" stroke-width="5" stroke-linecap="round"/>
    <text x="36" y="96" fill="#8b949e" font-family="Consolas, Monaco, monospace" font-size="12">real-time loop</text>
  </g>
</svg>

